<?xml version="1.0" standalone="no"?>
<!DOCTYPE svg PUBLIC "-//W3C//DTD SVG 20010904//EN"
 "http://www.w3.org/TR/2001/REC-SVG-20010904/DTD/svg10.dtd">
<svg version="1.0" xmlns="http://www.w3.org/2000/svg"
 width="300.000000pt" height="300.000000pt" viewBox="0 0 300.000000 300.000000"
 preserveAspectRatio="xMidYMid meet">
<metadata>
Created by potrace 1.10, written by Peter Selinger 2001-2011
</metadata>
<g transform="translate(0.000000,300.000000) scale(0.100000,-0.100000)"
fill="#000000" stroke="none">
<path d="M1679 2339 c-100 -15 -177 -77 -228 -185 -17 -36 -31 -67 -31 -69 0
-5 76 -45 85 -45 3 0 19 28 35 62 37 76 54 96 105 119 87 40 185 11 232 -69
37 -63 35 -125 -5 -212 l-30 -65 28 -30 c15 -16 35 -45 44 -63 9 -18 38 -57
64 -86 80 -91 82 -95 82 -158 0 -32 -4 -58 -10 -58 -5 0 -10 -6 -10 -13 0 -18
-50 -63 -80 -72 -14 -5 -91 -9 -172 -9 -81 -1 -150 -5 -154 -9 -4 -4 68 -7
160 -7 124 0 174 4 194 14 72 38 112 122 92 195 -12 45 -33 76 -108 153 l-55
56 44 99 c40 89 44 105 43 173 -1 89 -18 134 -75 195 -62 67 -156 99 -250 84z
m153 -50 c131 -67 176 -212 111 -364 -27 -63 -48 -80 -59 -50 -4 8 -2 21 4 28
18 21 45 109 47 152 1 22 -4 55 -11 73 -17 42 -72 112 -87 112 -7 0 -25 7 -42
16 -94 49 -224 -12 -280 -131 -18 -37 -45 -48 -45 -17 1 62 91 165 166 188 64
20 149 17 196 -7z"/>
<path d="M1240 1956 c-38 -21 -300 -313 -317 -354 -31 -76 8 -181 81 -216 31
-15 72 -17 308 -17 270 1 272 1 308 25 66 43 93 152 57 223 -23 42 -296 333
-324 344 -34 13 -84 11 -113 -5z m103 -29 c27 -14 117 -106 117 -119 0 -5 6
-8 14 -8 15 0 166 -161 185 -198 7 -13 11 -44 10 -70 -6 -106 -40 -130 -189
-131 -58 -1 -118 -1 -135 -1 -16 1 -88 1 -158 1 -145 -1 -181 9 -217 59 -25
36 -34 120 -12 128 7 2 10 8 7 13 -3 4 24 41 60 81 35 40 93 105 127 144 63
71 118 113 149 114 9 0 28 -6 42 -13z"/>
<path d="M1625 1951 c-40 -24 -130 -130 -95 -111 13 7 42 32 64 56 54 58 104
67 158 30 70 -47 84 -48 36 -2 -41 40 -52 46 -90 46 -24 0 -56 -8 -73 -19z"/>
<path d="M1545 1226 c-105 -47 -113 -195 -14 -248 65 -35 152 -15 189 44 29
46 23 127 -11 164 -46 50 -108 65 -164 40z m110 -61 c56 -55 22 -155 -52 -155
-88 0 -116 123 -38 168 32 18 64 14 90 -13z"/>
<path d="M1853 1221 c-50 -23 -76 -67 -76 -128 0 -76 61 -133 143 -133 62 1
90 18 79 48 -7 19 -12 21 -28 12 -33 -17 -78 -12 -108 14 -34 29 -39 92 -9
125 24 26 77 37 107 21 19 -11 24 -10 36 6 20 27 17 32 -24 43 -52 15 -72 13
-120 -8z"/>
<path d="M720 1124 c0 -103 1 -106 29 -135 52 -52 157 -33 180 32 6 18 11 72
11 120 l0 89 -30 0 -30 0 0 -91 c0 -106 -9 -129 -50 -129 -48 0 -62 33 -58
134 l3 86 -27 0 -28 0 0 -106z"/>
<path d="M990 1095 l0 -135 25 0 c25 0 25 1 25 92 l0 91 65 -91 c52 -73 71
-92 90 -92 l25 0 0 135 0 135 -31 0 -32 0 5 -84 c2 -47 2 -83 -1 -81 -4 2 -31
40 -61 84 -46 68 -59 81 -82 81 l-28 0 0 -135z"/>
<path d="M1270 1095 l0 -135 90 0 c89 0 90 0 90 25 0 24 -3 25 -60 25 l-60 0
0 110 0 110 -30 0 -30 0 0 -135z"/>
<path d="M2050 1095 l0 -135 31 0 32 0 -5 65 c-3 36 -3 65 1 64 3 0 28 -29 56
-65 43 -56 54 -64 82 -64 18 0 33 3 33 8 -1 4 -27 36 -60 72 l-59 65 32 35
c18 19 43 47 56 63 l24 27 -34 0 c-30 0 -41 -8 -79 -55 -25 -29 -48 -54 -52
-55 -4 0 -4 25 -1 55 l6 55 -32 0 -31 0 0 -135z"/>
<path d="M963 870 c-42 -25 -63 -68 -63 -126 0 -41 5 -51 39 -85 21 -22 49
-40 62 -40 89 -5 130 9 122 41 -6 23 -9 24 -52 9 -45 -16 -89 4 -107 48 -28
66 15 129 83 121 21 -3 44 -7 51 -9 8 -2 18 6 23 19 7 19 5 24 -17 32 -41 16
-106 12 -141 -10z"/>
<path d="M1203 870 c-41 -25 -63 -68 -63 -124 0 -83 76 -141 162 -126 52 10
87 36 104 75 18 45 17 71 -5 121 -32 69 -129 96 -198 54z m132 -55 c67 -67
-11 -183 -94 -140 -32 16 -56 70 -45 101 23 65 94 85 139 39z"/>
<path d="M1632 870 c-80 -49 -80 -181 0 -230 46 -28 126 -27 162 1 77 61 74
180 -7 229 -42 26 -112 26 -155 0z m135 -52 c17 -16 23 -32 23 -62 -1 -44 -13
-66 -47 -84 -34 -18 -52 -14 -84 17 -21 22 -29 39 -29 66 0 73 85 112 137 63z"/>
<path d="M1890 755 l0 -135 29 0 c28 0 28 1 23 45 l-5 45 36 0 c56 0 86 16
102 54 32 76 -20 126 -130 126 l-55 0 0 -135z m134 63 c17 -27 -5 -52 -48 -56
l-36 -3 0 41 0 41 36 -3 c22 -2 42 -10 48 -20z"/>
<path d="M1450 745 c0 -23 4 -25 45 -25 41 0 45 2 45 25 0 23 -4 25 -45 25
-41 0 -45 -2 -45 -25z"/>
</g>
</svg>
